<svg xmlns="http://www.w3.org/2000/svg" version="1.1" xmlns:xlink="http://www.w3.org/1999/xlink" xmlns:svgjs="http://svgjs.dev/svgjs" width="128" height="128" viewBox="0 0 128 128"><g transform="matrix(0.46396396396396394,0,0,0.46396396396396394,34.55179761498591,12.506335372881338)"><svg viewBox="0 0 34 59" data-background-color="#ffffff" preserveAspectRatio="xMidYMid meet" height="222" width="128" xmlns="http://www.w3.org/2000/svg" xmlns:xlink="http://www.w3.org/1999/xlink"><g id="tight-bounds" transform="matrix(1,0,0,1,-0.14054675348252488,-0.0036289999999894462)"><svg viewBox="0 0 34.28109350696506 59.00725799999999" height="59.00725799999999" width="34.28109350696506"><g><svg viewBox="0 0 34.28109350696506 59.00725799999999" height="59.00725799999999" width="34.28109350696506"><g><svg viewBox="0 0 34.28109350696506 59.00725799999999" height="59.00725799999999" width="34.28109350696506"><g><svg viewBox="0 0 34.28109350696506 59.00725799999999" height="59.00725799999999" width="34.28109350696506"><g id="textblocktransform"><svg viewBox="0 0 34.28109350696506 59.00725799999999" height="59.00725799999999" width="34.28109350696506" id="textblock"><g><svg viewBox="0 0 34.28109350696506 59.00725799999999" height="59.00725799999999" width="34.28109350696506"><g><svg viewBox="0 0 34.28109350696506 59.00725799999999" height="59.00725799999999" width="34.28109350696506"><g><svg xmlns="http://www.w3.org/2000/svg" xmlns:xlink="http://www.w3.org/1999/xlink" version="1.1" x="0" y="0" viewBox="28.58 10 51.83999999999999 89.231" style="enable-background:new 0 0 109 109;" xml:space="preserve" height="59.00725799999999" width="34.28109350696506" class="icon-icon-0" data-fill-palette-color="accent" id="icon-0"><path d="M78.635 63.911l0.024-0.009L59.23 13.77l-0.464-1.195C57.943 11.05 56.353 10 54.499 10c-1.855 0-3.453 1.05-4.269 2.585l-0.456 1.173L30.341 63.902l0.022 0.009c-1.136 2.918-1.783 6.077-1.783 9.401 0 14.317 11.606 25.919 25.919 25.919 14.318 0 25.921-11.602 25.921-25.919C80.42 69.987 79.772 66.829 78.635 63.911zM53.596 90.432c-9.508 0-17.246-7.735-17.246-17.242 0-1.536 1.245-2.776 2.775-2.776 1.534 0 2.773 1.241 2.773 2.776 0 6.448 5.249 11.693 11.698 11.693 1.529 0 2.773 1.242 2.773 2.775C56.369 89.194 55.125 90.432 53.596 90.432zM62.138 89.711c-1.494 0-2.706-1.213-2.706-2.708 0-1.497 1.211-2.707 2.706-2.707 1.495 0 2.707 1.209 2.707 2.705C64.845 88.498 63.633 89.711 62.138 89.711z" fill="#010c80" data-fill-palette-color="accent"></path></svg></g></svg></g></svg></g></svg></g></svg></g><g></g></svg></g></svg></g><defs></defs></svg><rect width="34.28109350696506" height="59.00725799999999" fill="none" stroke="none" visibility="hidden"></rect></g></svg></g></svg>