<svg xmlns="http://www.w3.org/2000/svg" version="1.1" xmlns:xlink="http://www.w3.org/1999/xlink" xmlns:svgjs="http://svgjs.dev/svgjs" width="1000" height="459" viewBox="0 0 1000 459"><g transform="matrix(1,0,0,1,-0.6060606060606233,0.20697807588783235)"><svg viewBox="0 0 396 182" data-background-color="#ffffff" preserveAspectRatio="xMidYMid meet" height="459" width="1000" xmlns="http://www.w3.org/2000/svg" xmlns:xlink="http://www.w3.org/1999/xlink"><g id="tight-bounds" transform="matrix(1,0,0,1,0.2400000000000091,-0.08206973815160268)"><svg viewBox="0 0 395.52 182.1641394763032" height="182.1641394763032" width="395.52"><g><svg viewBox="0 0 395.52 182.1641394763032" height="182.1641394763032" width="395.52"><g><svg viewBox="0 0 395.52 182.1641394763032" height="182.1641394763032" width="395.52"><g><svg viewBox="0 0 395.52 182.1641394763032" height="182.1641394763032" width="395.52"><g transform="matrix(1,0,0,1,0,108.81348554190463)"><svg viewBox="0 0 395.52 73.35065393439858" height="73.35065393439858" width="395.52"><g id="textblocktransform"><svg viewBox="0 0 395.52 73.35065393439858" height="73.35065393439858" width="395.52" id="textblock"><g><svg viewBox="0 0 395.52 51.00519314551264" height="51.00519314551264" width="395.52"><g transform="matrix(1,0,0,1,0,0)"><svg width="395.52" viewBox="0.75 -35.45 344.27 44.400000000000006" height="51.00519314551264" data-palette-color="#010c80"><path d="M26 0.1L26 0.1Q21.65 0.1 21.3-1.3L21.3-1.3 19.65-7.75 11.7-7.75 10.25-1.55Q9.95 0 5.45 0L5.45 0Q3.05 0 1.9-0.28 0.75-0.55 0.75-0.7L0.75-0.7 9.6-34.55Q9.6-34.95 16.45-34.95 23.3-34.95 23.3-34.55L23.3-34.55 31.95-0.65Q31.95-0.3 29.65-0.1 27.35 0.1 26 0.1ZM15.65-24.45L12.95-14.1 18.2-14.1 15.95-24.45 15.65-24.45ZM34.25-17.45L34.25-17.45Q34.25-26.35 38.72-30.9 43.2-35.45 50.27-35.45 57.35-35.45 61.7-30.98 66.05-26.5 66.05-17.45L66.05-17.45Q66.05-10.5 63.35-6.25 60.65-2 55.95-0.4L55.95-0.4 61.25 3.25Q61.55 3.45 61.55 3.98 61.55 4.5 60.42 5.95 59.3 7.4 57.72 8.18 56.15 8.95 55.35 8.95 54.55 8.95 54.05 8.4L54.05 8.4 46.75 0.3Q41.15-0.75 37.7-5.33 34.25-9.9 34.25-17.45ZM50.15-25.85Q47.75-25.85 46.12-23.65 44.5-21.45 44.5-17.48 44.5-13.5 46.05-11.38 47.6-9.25 50.12-9.25 52.65-9.25 54.22-11.4 55.8-13.55 55.8-17.55 55.8-21.55 54.17-23.7 52.55-25.85 50.15-25.85ZM86.9-11.4L86.9-34Q86.9-35 92.32-35 97.75-35 97.75-34L97.75-34 97.75-11.05Q97.75-5.95 94.1-2.73 90.45 0.5 84.02 0.5 77.6 0.5 73.57-2.83 69.55-6.15 69.55-11.8L69.55-11.8 69.55-33.95Q69.55-34.95 74.97-34.95 80.4-34.95 80.4-33.95L80.4-33.95 80.4-11.4Q80.4-10.4 81.45-9.8L81.45-9.8Q82.55-9.2 83.75-9.2 84.95-9.2 85.92-9.75 86.9-10.3 86.9-11.4L86.9-11.4ZM125.44 0.1L125.44 0.1Q121.09 0.1 120.74-1.3L120.74-1.3 119.09-7.75 111.14-7.75 109.69-1.55Q109.39 0 104.89 0L104.89 0Q102.49 0 101.34-0.28 100.19-0.55 100.19-0.7L100.19-0.7 109.04-34.55Q109.04-34.95 115.89-34.95 122.74-34.95 122.74-34.55L122.74-34.55 131.39-0.65Q131.39-0.3 129.09-0.1 126.79 0.1 125.44 0.1ZM115.09-24.45L112.39-14.1 117.64-14.1 115.39-24.45 115.09-24.45ZM139.04 0.1L139.04 0.1Q134.49 0.1 134.49-0.9L134.49-0.9 134.49-33.3Q134.49-35 136.04-35L136.04-35 144.84-35Q152.24-35 155.52-31.95 158.79-28.9 158.79-23.1L158.79-23.1Q158.79-18.3 155.69-14.3L155.69-14.3Q154.14-12.3 151.14-11.1 148.14-9.9 144.14-9.9L144.14-9.9 144.14-0.95Q144.14-0.35 142.27-0.13 140.39 0.1 139.04 0.1ZM145.19-26.3L144.14-26.3 144.14-18.4 144.79-18.4Q146.54-18.4 147.74-19.5 148.94-20.6 148.94-22.6 148.94-24.6 148.12-25.45 147.29-26.3 145.19-26.3L145.19-26.3ZM179.54-11.4L179.54-34Q179.54-35 184.96-35 190.39-35 190.39-34L190.39-34 190.39-11.05Q190.39-5.95 186.74-2.73 183.09 0.5 176.66 0.5 170.24 0.5 166.21-2.83 162.19-6.15 162.19-11.8L162.19-11.8 162.19-33.95Q162.19-34.95 167.61-34.95 173.04-34.95 173.04-33.95L173.04-33.95 173.04-11.4Q173.04-10.4 174.09-9.8L174.09-9.8Q175.19-9.2 176.39-9.2 177.59-9.2 178.56-9.75 179.54-10.3 179.54-11.4L179.54-11.4ZM229.59 0.05L229.59 0.05Q225.14 0.05 225.14-0.95L225.14-0.95 224.09-21 217.99-0.7Q217.79-0.1 214.59-0.1 211.39-0.1 211.29-0.65L211.29-0.65 204.99-21.2 204.29-1.25Q204.24-0.5 202.39-0.23 200.54 0.05 199.31 0.05 198.09 0.05 196.94-0.1L196.94-0.1Q194.54-0.45 194.59-1.35L194.59-1.35 195.74-33.85Q195.74-35.05 201.84-35.05L201.84-35.05Q203.64-35.05 206.24-34.77 208.84-34.5 209.14-33.7L209.14-33.7 214.74-17.95 219.64-33.75Q220.09-35.05 226.54-35.05L226.54-35.05Q228.39-35.05 230.96-34.77 233.54-34.5 233.54-33.8L233.54-33.8 234.99-1Q234.99-0.45 233.04-0.2 231.09 0.05 229.59 0.05ZM244.28 0.1L244.28 0.1Q239.73 0.1 239.73-0.9L239.73-0.9 239.73-33.3Q239.73-35 241.28-35L241.28-35 250.08-35Q257.48-35 260.76-31.95 264.03-28.9 264.03-23.1L264.03-23.1Q264.03-18.3 260.93-14.3L260.93-14.3Q259.38-12.3 256.38-11.1 253.38-9.9 249.38-9.9L249.38-9.9 249.38-0.95Q249.38-0.35 247.51-0.13 245.63 0.1 244.28 0.1ZM250.43-26.3L249.38-26.3 249.38-18.4 250.03-18.4Q251.78-18.4 252.98-19.5 254.18-20.6 254.18-22.6 254.18-24.6 253.36-25.45 252.53-26.3 250.43-26.3L250.43-26.3ZM278.23-21.1L284.68-21.1Q285.63-21.1 285.63-17.6L285.63-17.6Q285.63-16.55 285.41-15.13 285.18-13.7 284.58-13.7L284.58-13.7 278.23-13.7 278.23-8.7 287.43-8.7Q288.28-8.7 288.58-6.5L288.58-6.5Q288.73-5.55 288.73-4.48 288.73-3.4 288.43-1.7 288.13 0 287.43 0L287.43 0 270.33 0Q268.43 0 268.43-1.55L268.43-1.55 268.43-33.7Q268.43-35 269.58-35L269.58-35 287.48-35Q288.53-35 288.53-30.58 288.53-26.15 287.48-26.15L287.48-26.15 278.23-26.15 278.23-21.1ZM302.63-12.05L302.63-0.7Q302.63 0.1 297.88 0.1L297.88 0.1Q293.08 0.1 293.08-0.65L293.08-0.65 293.08-33.25Q293.08-35 294.93-35L294.93-35 304.48-35Q317.63-35 317.63-24.75L317.63-24.75Q317.63-21.65 316.43-19.13 315.23-16.6 313.03-15.1L313.03-15.1 319.33-4.6Q318.93-3.4 316.73-1.85L316.73-1.85Q313.73 0.3 311.78 0.3 309.83 0.3 308.88-1.1L308.88-1.1 304.18-12.05 302.63-12.05ZM303.68-26.15L302.63-26.15 302.63-18.65 302.88-18.65Q307.63-18.65 307.63-22.6L307.63-22.6Q307.63-24.4 306.7-25.28 305.78-26.15 303.68-26.15L303.68-26.15ZM323.88-12.2L323.88-12.2Q324.82-11.45 327.15-10.15 329.47-8.85 331.6-8.85 333.72-8.85 333.72-10.5L333.72-10.5Q333.72-11.25 333.13-11.83 332.52-12.4 330.93-13.15 329.32-13.9 328.52-14.33 327.72-14.75 326.4-15.73 325.07-16.7 324.38-17.75L324.38-17.75Q322.38-20.6 322.38-25 322.38-29.4 325.65-32.43 328.93-35.45 334.22-35.45L334.22-35.45Q337.82-35.45 340.88-34.68 343.93-33.9 344.02-32.65L344.02-32.65Q344.02-32.5 344.02-32.35L344.02-32.35Q344.02-30.6 342.93-27.93 341.82-25.25 341.38-24.95L341.38-24.95Q338.18-26.6 335.65-26.6 333.13-26.6 333.13-24.8L333.13-24.8Q333.13-23.7 334.97-22.85L334.97-22.85Q335.38-22.65 336.13-22.3 336.88-21.95 337.85-21.48 338.82-21 339.95-20.28 341.07-19.55 342.38-18.35L342.38-18.35Q345.02-15.85 345.02-11.75L345.02-11.75Q345.02-6.4 342.07-3 339.13 0.4 332.97 0.5L332.97 0.5Q329.97 0.5 327.55 0 325.13-0.5 323.32-1.95 321.52-3.4 321.52-5.45 321.52-7.5 322.27-9.53 323.02-11.55 323.88-12.2Z" opacity="1" transform="matrix(1,0,0,1,0,0)" fill="#010c80" class="wordmark-text-0" data-fill-palette-color="primary" id="text-0"></path></svg></g></svg></g><g transform="matrix(1,0,0,1,0,58.44807495007843)"><svg viewBox="0 0 395.52 14.90257898432015" height="14.90257898432015" width="395.52"><g transform="matrix(1,0,0,1,0,0)"><svg width="395.52" viewBox="3.6 -31.95 854.52 32.2" height="14.90257898432015" data-palette-color="#010c80"><path d="M32.45-31.6Q33.15-31.6 34.18-30.68 35.2-29.75 35.2-29.1L35.2-29.1Q35.2-26.05 35-20.75L35-20.75Q34.95-19.45 34.9-17.63 34.85-15.8 34.85-13.4L34.85-13.4Q34.85-5.8 35.75-2.2L35.75-2.2Q35.7-1 34.8-0.48 33.9 0.05 33 0.05L33 0.05Q31 0.05 30.38-1.35 29.75-2.75 29.75-5.35L29.75-5.35Q29.75-15 29.95-23.1L29.95-23.1Q24.2-16.7 21-12.35L21-12.35Q21-12.35 20.1-11.75L20.1-11.75Q19.25-11 18.7-11L18.7-11Q17.4-11 16.55-11.65 15.7-12.3 14.9-13.55L14.9-13.55 12.5-16.95Q10-20.45 8.85-22.25L8.85-22.25Q8.85-17.65 9.3-9.75L9.3-9.75Q9.65-5.2 9.65-2.9L9.65-2.9Q9.65-1.7 9.05-0.88 8.45-0.05 7.15-0.05L7.15-0.05Q5.85-0.05 5.03-0.55 4.2-1.05 4.15-2.05L4.15-2.05Q4.2-2.9 4.2-4.85L4.2-4.85Q4.2-8.75 3.95-14.35L3.95-14.35 3.85-17.05 3.75-20.55Q3.7-22.1 3.65-24.18 3.6-26.25 3.6-28.7L3.6-28.7Q3.6-31.7 6.85-31.7L6.85-31.7Q7.85-31.7 8.88-31.2 9.9-30.7 10.4-29.75L10.4-29.75Q10.8-28 13.35-23.95 15.9-19.9 18.35-16.35L18.35-16.35Q20.55-19.15 21.95-20.55L21.95-20.55Q24.35-23 25.93-25.1 27.5-27.2 29.35-30.15L29.35-30.15Q29.8-30.75 30.65-31.18 31.5-31.6 32.45-31.6L32.45-31.6ZM65.7-0.75Q65.05-1.6 64.6-2.63 64.15-3.65 63.65-5.1L63.65-5.1Q63.55-5.35 63.07-6.6 62.6-7.85 62-8.75L62-8.75Q58.85-8.3 56.85-8.3L56.85-8.3Q55.75-8.3 54.42-8.38 53.1-8.45 52.45-8.45L52.45-8.45Q49.95-8.65 48.45-8.65L48.45-8.65Q47.85-7.85 47.42-6.95 47-6.05 46.35-4.25L46.35-4.25Q45.45-1.65 44.8-0.55L44.8-0.55Q44.35 0.2 43.05 0.2L43.05 0.2Q41.95 0.2 41.02-0.28 40.1-0.75 40.1-1.6L40.1-1.6Q40.5-3.5 41.37-5.63 42.25-7.75 43.9-11.3L43.9-11.3 45.9-16.2Q47.55-20.4 48.92-23.4 50.3-26.4 52.55-30.5L52.55-30.5Q52.85-31.1 53.55-31.53 54.25-31.95 55.1-31.95L55.1-31.95Q56.05-31.95 56.47-31.83 56.9-31.7 57.15-31.43 57.4-31.15 57.9-30.3L57.9-30.3Q59.6-27.65 60.82-24.85 62.05-22.05 63.95-17.1L63.95-17.1 65-14.45Q66.4-10.85 67.42-8.43 68.45-6 69.7-4L69.7-4Q70.5-2.7 70.5-2.2L70.5-2.2Q70.5-1 69.77-0.38 69.05 0.25 67.9 0.25L67.9 0.25Q66.45 0.25 65.7-0.75L65.7-0.75ZM60.55-12.85Q59.75-14.55 58.25-18.75L58.25-18.75Q56.7-23.25 55.15-25.9L55.15-25.9Q54.2-23.5 52.35-19.7L52.35-19.7Q51.1-17.35 49.5-12.9L49.5-12.9Q52.7-12.5 56.4-12.5L56.4-12.5Q59.05-12.5 60.55-12.85L60.55-12.85ZM82.95-27.6Q82.8-24.4 82.8-21.45L82.8-21.45Q82.8-18.4 83.2-12.5L83.2-12.5Q83.25-11.6 83.4-8.88 83.55-6.15 83.55-3.9L83.55-3.9Q84.05-3.95 84.62-4.05 85.2-4.15 85.5-4.15L85.5-4.15Q86.6-4.15 87.25-3.6 87.9-3.05 87.9-1.9L87.9-1.9Q87.9-1.15 87.3-0.75 86.7-0.35 85.22-0.18 83.75 0 80.95 0L80.95 0Q77.85 0 76.3-0.2 74.75-0.4 74.15-0.98 73.55-1.55 73.55-2.7L73.55-2.7Q73.55-3.55 74.1-3.85 74.65-4.15 75.65-4.15L75.65-4.15 76.7-4.1 78.35-4 78.1-9.9Q77.8-14.7 77.8-18.7L77.8-18.7Q77.8-20.85 77.95-24.6L77.95-24.6 78.05-27.35Q76.35-27.25 75.4-27.25L75.4-27.25Q74.3-27.25 73.92-27.65 73.55-28.05 73.55-29.3L73.55-29.3Q73.55-30.7 75.47-31.1 77.4-31.5 81.35-31.5L81.35-31.5Q84.4-31.5 85.92-31.3 87.45-31.1 87.45-30.4L87.45-30.4Q87.45-28.7 86.72-28.18 86-27.65 83.95-27.65L83.95-27.65 82.95-27.6ZM114.44-28.1Q114.44-29.55 115.12-30.63 115.79-31.7 117.14-31.7L117.14-31.7Q118.29-31.7 119.19-31.25 120.09-30.8 120.09-29.75L120.09-29.75Q120.09-27.7 119.89-24L119.89-24Q119.69-20.4 119.69-18.65L119.69-18.65Q119.69-15.9 119.89-11.3L119.89-11.3Q120.09-6.9 120.09-4.85L120.09-4.85Q120.09-3.2 120.04-2.4L120.04-2.4Q120.04-1.6 119.17-0.83 118.29-0.05 116.49-0.05L116.49-0.05Q115.54-0.05 114.87-0.38 114.19-0.7 113.94-1.1L113.94-1.1Q111.59-3.95 107.09-10.8L107.09-10.8Q102.04-18.45 98.84-22.5L98.84-22.5Q99.24-18.9 99.24-13.7L99.24-13.7Q99.24-11.4 99.17-7.73 99.09-4.05 98.94-2.9L98.94-2.9Q98.74-1.45 98.07-0.68 97.39 0.1 95.94 0.1L95.94 0.1Q94.84 0.1 94.32-0.53 93.79-1.15 93.69-2.7L93.69-2.7Q93.64-4.75 93.94-8.85L93.94-8.85Q93.99-9.5 94.09-11.1 94.19-12.7 94.19-13.95L94.19-13.95Q94.19-17.4 93.84-21.85L93.84-21.85Q93.54-26.75 93.54-29.1L93.54-29.1Q93.54-30.3 94.42-30.95 95.29-31.6 96.44-31.6L96.44-31.6Q97.44-31.6 98.54-31.1L98.54-31.1Q102.84-25.7 110.19-15L110.19-15 114.89-7.8Q114.94-8.6 114.94-10.05L114.94-10.05Q114.94-12.6 114.84-15.55 114.74-18.5 114.69-19.55L114.69-19.55Q114.44-24.4 114.44-28.1L114.44-28.1ZM124.24-29.15Q124.24-31.3 127.39-31.3L127.39-31.3Q128.74-31.3 132.54-31.2L132.54-31.2Q136.74-31 138.89-31L138.89-31Q140.64-31 143.14-31.2L143.14-31.2Q144.84-31.3 145.29-31.3L145.29-31.3Q148.04-31.2 149.94-30.3L149.94-30.3Q150.49-30.05 150.84-29.7 151.19-29.35 151.19-28.55L151.19-28.55Q151.19-27.45 150.49-26.68 149.79-25.9 148.79-25.9L148.79-25.9Q147.69-25.9 145.59-26.2L145.59-26.2Q143.74-26.55 142.34-26.55L142.34-26.55Q140.99-26.55 140.29-26.5L140.29-26.5Q140.14-24.85 140.14-18.6L140.14-18.6Q140.14-11.15 140.59-3.5L140.59-3.5 140.69-2.05Q140.69 0 138.34 0L138.34 0Q136.49 0 135.84-0.88 135.19-1.75 135.19-3.55L135.19-3.55Q135.19-7.1 134.99-12.4L134.99-12.4Q134.79-16.8 134.79-18.65L134.79-18.65Q134.79-19.9 135.09-26.3L135.09-26.3 129.24-26.25Q126.44-26.25 125.34-26.78 124.24-27.3 124.24-29.15L124.24-29.15ZM175.84-6.8Q176.79-6.8 177.26-6.08 177.74-5.35 177.74-4.5L177.74-4.5Q177.74-3.45 177.41-3.03 177.09-2.6 176.19-2.15L176.19-2.15Q174.09-1.15 170.99-0.55 167.89 0.05 164.34 0.05L164.34 0.05Q159.89 0.05 157.81-1.45 155.74-2.95 155.26-5.08 154.79-7.2 154.79-10.65L154.79-10.65Q154.79-14.35 155.09-17.93 155.39-21.5 156.14-27.05L156.14-27.05Q156.49-29.45 158.04-30.53 159.59-31.6 161.44-31.6L161.44-31.6Q162.99-31.6 166.49-31.7L166.49-31.7 170.84-31.75Q173.54-31.75 174.74-31.6L174.74-31.6Q176.24-31.3 176.96-30.93 177.69-30.55 177.69-29.65L177.69-29.65Q177.69-28.65 177.01-27.7 176.34-26.75 174.99-26.75L174.99-26.75Q173.44-26.75 170.54-26.95L170.54-26.95Q167.64-27.15 166.19-27.15L166.19-27.15Q164.94-27.15 163.74-27L163.74-27Q162.34-26.9 161.74-26.65 161.14-26.4 161.04-25.8L161.04-25.8Q160.34-20.65 160.34-18.2L160.34-18.2Q161.49-18.05 162.59-18.05L162.59-18.05Q163.99-18.05 165.59-18.2 167.19-18.35 167.64-18.4L167.64-18.4Q170.29-18.65 172.19-18.65L172.19-18.65Q173.29-18.65 173.86-18.25 174.44-17.85 174.44-17.15L174.44-17.15Q174.44-16.05 173.86-15.45 173.29-14.85 171.84-14.55L171.84-14.55Q170.09-14.2 167.51-14 164.94-13.8 162.49-13.8L162.49-13.8Q161.64-13.8 160.14-13.9L160.14-13.9Q159.99-10.85 159.99-8.25L159.99-8.25Q159.99-4.7 164.69-4.7L164.69-4.7Q167.19-4.7 168.84-5.05 170.49-5.4 172.64-6.05L172.64-6.05Q174.64-6.8 175.84-6.8L175.84-6.8ZM203.84-28.1Q203.84-29.55 204.51-30.63 205.19-31.7 206.54-31.7L206.54-31.7Q207.69-31.7 208.59-31.25 209.49-30.8 209.49-29.75L209.49-29.75Q209.49-27.7 209.29-24L209.29-24Q209.09-20.4 209.09-18.65L209.09-18.65Q209.09-15.9 209.29-11.3L209.29-11.3Q209.49-6.9 209.49-4.85L209.49-4.85Q209.49-3.2 209.44-2.4L209.44-2.4Q209.44-1.6 208.56-0.83 207.69-0.05 205.89-0.05L205.89-0.05Q204.94-0.05 204.26-0.38 203.59-0.7 203.34-1.1L203.34-1.1Q200.99-3.95 196.49-10.8L196.49-10.8Q191.44-18.45 188.24-22.5L188.24-22.5Q188.64-18.9 188.64-13.7L188.64-13.7Q188.64-11.4 188.56-7.73 188.49-4.05 188.34-2.9L188.34-2.9Q188.14-1.45 187.46-0.68 186.79 0.1 185.34 0.1L185.34 0.1Q184.24 0.1 183.71-0.53 183.19-1.15 183.09-2.7L183.09-2.7Q183.04-4.75 183.34-8.85L183.34-8.85Q183.39-9.5 183.49-11.1 183.59-12.7 183.59-13.95L183.59-13.95Q183.59-17.4 183.24-21.85L183.24-21.85Q182.94-26.75 182.94-29.1L182.94-29.1Q182.94-30.3 183.81-30.95 184.69-31.6 185.84-31.6L185.84-31.6Q186.84-31.6 187.94-31.1L187.94-31.1Q192.24-25.7 199.59-15L199.59-15 204.29-7.8Q204.34-8.6 204.34-10.05L204.34-10.05Q204.34-12.6 204.24-15.55 204.14-18.5 204.09-19.55L204.09-19.55Q203.84-24.4 203.84-28.1L203.84-28.1ZM239.48-0.75Q238.83-1.6 238.38-2.63 237.93-3.65 237.43-5.1L237.43-5.1Q237.33-5.35 236.86-6.6 236.38-7.85 235.78-8.75L235.78-8.75Q232.63-8.3 230.63-8.3L230.63-8.3Q229.53-8.3 228.21-8.38 226.88-8.45 226.23-8.45L226.23-8.45Q223.73-8.65 222.23-8.65L222.23-8.65Q221.63-7.85 221.21-6.95 220.78-6.05 220.13-4.25L220.13-4.25Q219.23-1.65 218.58-0.55L218.58-0.55Q218.13 0.2 216.83 0.2L216.83 0.2Q215.73 0.2 214.81-0.28 213.88-0.75 213.88-1.6L213.88-1.6Q214.28-3.5 215.16-5.63 216.03-7.75 217.68-11.3L217.68-11.3 219.68-16.2Q221.33-20.4 222.71-23.4 224.08-26.4 226.33-30.5L226.33-30.5Q226.63-31.1 227.33-31.53 228.03-31.95 228.88-31.95L228.88-31.95Q229.83-31.95 230.26-31.83 230.68-31.7 230.93-31.43 231.18-31.15 231.68-30.3L231.68-30.3Q233.38-27.65 234.61-24.85 235.83-22.05 237.73-17.1L237.73-17.1 238.78-14.45Q240.18-10.85 241.21-8.43 242.23-6 243.48-4L243.48-4Q244.28-2.7 244.28-2.2L244.28-2.2Q244.28-1 243.56-0.38 242.83 0.25 241.68 0.25L241.68 0.25Q240.23 0.25 239.48-0.75L239.48-0.75ZM234.33-12.85Q233.53-14.55 232.03-18.75L232.03-18.75Q230.48-23.25 228.93-25.9L228.93-25.9Q227.98-23.5 226.13-19.7L226.13-19.7Q224.88-17.35 223.28-12.9L223.28-12.9Q226.48-12.5 230.18-12.5L230.18-12.5Q232.83-12.5 234.33-12.85L234.33-12.85ZM269.58-28.1Q269.58-29.55 270.26-30.63 270.93-31.7 272.28-31.7L272.28-31.7Q273.43-31.7 274.33-31.25 275.23-30.8 275.23-29.75L275.23-29.75Q275.23-27.7 275.03-24L275.03-24Q274.83-20.4 274.83-18.65L274.83-18.65Q274.83-15.9 275.03-11.3L275.03-11.3Q275.23-6.9 275.23-4.85L275.23-4.85Q275.23-3.2 275.18-2.4L275.18-2.4Q275.18-1.6 274.31-0.83 273.43-0.05 271.63-0.05L271.63-0.05Q270.68-0.05 270.01-0.38 269.33-0.7 269.08-1.1L269.08-1.1Q266.73-3.95 262.23-10.8L262.23-10.8Q257.18-18.45 253.98-22.5L253.98-22.5Q254.38-18.9 254.38-13.7L254.38-13.7Q254.38-11.4 254.31-7.73 254.23-4.05 254.08-2.9L254.08-2.9Q253.88-1.45 253.21-0.68 252.53 0.1 251.08 0.1L251.08 0.1Q249.98 0.1 249.46-0.53 248.93-1.15 248.83-2.7L248.83-2.7Q248.78-4.75 249.08-8.85L249.08-8.85Q249.13-9.5 249.23-11.1 249.33-12.7 249.33-13.95L249.33-13.95Q249.33-17.4 248.98-21.85L248.98-21.85Q248.68-26.75 248.68-29.1L248.68-29.1Q248.68-30.3 249.56-30.95 250.43-31.6 251.58-31.6L251.58-31.6Q252.58-31.6 253.68-31.1L253.68-31.1Q257.98-25.7 265.33-15L265.33-15 270.03-7.8Q270.08-8.6 270.08-10.05L270.08-10.05Q270.08-12.6 269.98-15.55 269.88-18.5 269.83-19.55L269.83-19.55Q269.58-24.4 269.58-28.1L269.58-28.1ZM306.83-27.75Q307.58-26.85 307.88-26.3 308.18-25.75 308.18-25.25L308.18-25.25Q308.18-24.65 307.4-23.85 306.63-23.05 305.88-23.05L305.88-23.05Q304.88-23.05 304.28-23.35 303.68-23.65 303.28-24.3L303.28-24.3Q302.48-25.5 301.33-26.38 300.18-27.25 297.73-27.25L297.73-27.25Q295.63-27.25 292.95-26.3 290.28-25.35 289.13-23.95L289.13-23.95Q288.13-22.7 287.4-20.15 286.68-17.6 286.68-15.2L286.68-15.2Q286.68-12.3 287.95-9.88 289.23-7.45 291.65-6 294.08-4.55 297.48-4.55L297.48-4.55Q299.33-4.55 301.3-5.28 303.28-6 304.73-7.65L304.73-7.65 304.68-7.65Q305.58-8.6 306.93-8.6L306.93-8.6Q307.73-8.6 308.45-7.9 309.18-7.2 309.18-6.5L309.18-6.5Q309.18-5.75 308.95-5.18 308.73-4.6 308.13-3.9L308.13-3.9Q306.08-1.6 303.28-0.75 300.48 0.1 296.58 0.1L296.58 0.1Q293.13 0.1 289.6-1.55 286.08-3.2 284.18-5.55L284.18-5.55Q283.18-7 282.25-9.73 281.33-12.45 281.33-14.15L281.33-14.15Q281.33-18.5 282.65-22.43 283.98-26.35 286.63-28.7L286.63-28.7Q288.38-30.3 291.68-31.1 294.98-31.9 297.73-31.9L297.73-31.9Q301.08-31.9 303-30.98 304.93-30.05 306.83-27.75L306.83-27.75ZM335.08-6.8Q336.03-6.8 336.5-6.08 336.98-5.35 336.98-4.5L336.98-4.5Q336.98-3.45 336.65-3.03 336.33-2.6 335.43-2.15L335.43-2.15Q333.33-1.15 330.23-0.55 327.13 0.05 323.58 0.05L323.58 0.05Q319.13 0.05 317.05-1.45 314.98-2.95 314.5-5.08 314.03-7.2 314.03-10.65L314.03-10.65Q314.03-14.35 314.33-17.93 314.63-21.5 315.38-27.05L315.38-27.05Q315.73-29.45 317.28-30.53 318.83-31.6 320.68-31.6L320.68-31.6Q322.23-31.6 325.73-31.7L325.73-31.7 330.08-31.75Q332.78-31.75 333.98-31.6L333.98-31.6Q335.48-31.3 336.2-30.93 336.93-30.55 336.93-29.65L336.93-29.65Q336.93-28.65 336.25-27.7 335.58-26.75 334.23-26.75L334.23-26.75Q332.68-26.75 329.78-26.95L329.78-26.95Q326.88-27.15 325.43-27.15L325.43-27.15Q324.18-27.15 322.98-27L322.98-27Q321.58-26.9 320.98-26.65 320.38-26.4 320.28-25.8L320.28-25.8Q319.58-20.65 319.58-18.2L319.58-18.2Q320.73-18.05 321.83-18.05L321.83-18.05Q323.23-18.05 324.83-18.2 326.43-18.35 326.88-18.4L326.88-18.4Q329.53-18.65 331.43-18.65L331.43-18.65Q332.53-18.65 333.1-18.25 333.68-17.85 333.68-17.15L333.68-17.15Q333.68-16.05 333.1-15.45 332.53-14.85 331.08-14.55L331.08-14.55Q329.33-14.2 326.75-14 324.18-13.8 321.73-13.8L321.73-13.8Q320.88-13.8 319.38-13.9L319.38-13.9Q319.23-10.85 319.23-8.25L319.23-8.25Q319.23-4.7 323.93-4.7L323.93-4.7Q326.43-4.7 328.08-5.05 329.73-5.4 331.88-6.05L331.88-6.05Q333.88-6.8 335.08-6.8L335.08-6.8ZM376.22-0.75Q375.57-1.6 375.12-2.63 374.67-3.65 374.17-5.1L374.17-5.1Q374.07-5.35 373.6-6.6 373.12-7.85 372.52-8.75L372.52-8.75Q369.37-8.3 367.37-8.3L367.37-8.3Q366.27-8.3 364.95-8.38 363.62-8.45 362.97-8.45L362.97-8.45Q360.47-8.65 358.97-8.65L358.97-8.65Q358.37-7.85 357.95-6.95 357.52-6.05 356.87-4.25L356.87-4.25Q355.97-1.65 355.32-0.55L355.32-0.55Q354.87 0.2 353.57 0.2L353.57 0.2Q352.47 0.2 351.55-0.28 350.62-0.75 350.62-1.6L350.62-1.6Q351.02-3.5 351.9-5.63 352.77-7.75 354.42-11.3L354.42-11.3 356.42-16.2Q358.07-20.4 359.45-23.4 360.82-26.4 363.07-30.5L363.07-30.5Q363.37-31.1 364.07-31.53 364.77-31.95 365.62-31.95L365.62-31.95Q366.57-31.95 367-31.83 367.42-31.7 367.67-31.43 367.92-31.15 368.42-30.3L368.42-30.3Q370.12-27.65 371.35-24.85 372.57-22.05 374.47-17.1L374.47-17.1 375.52-14.45Q376.92-10.85 377.95-8.43 378.97-6 380.22-4L380.22-4Q381.02-2.7 381.02-2.2L381.02-2.2Q381.02-1 380.3-0.38 379.57 0.25 378.42 0.25L378.42 0.25Q376.97 0.25 376.22-0.75L376.22-0.75ZM371.07-12.85Q370.27-14.55 368.77-18.75L368.77-18.75Q367.22-23.25 365.67-25.9L365.67-25.9Q364.72-23.5 362.87-19.7L362.87-19.7Q361.62-17.35 360.02-12.9L360.02-12.9Q363.22-12.5 366.92-12.5L366.92-12.5Q369.57-12.5 371.07-12.85L371.07-12.85ZM406.32-28.1Q406.32-29.55 406.99-30.63 407.67-31.7 409.02-31.7L409.02-31.7Q410.17-31.7 411.07-31.25 411.97-30.8 411.97-29.75L411.97-29.75Q411.97-27.7 411.77-24L411.77-24Q411.57-20.4 411.57-18.65L411.57-18.65Q411.57-15.9 411.77-11.3L411.77-11.3Q411.97-6.9 411.97-4.85L411.97-4.85Q411.97-3.2 411.92-2.4L411.92-2.4Q411.92-1.6 411.04-0.83 410.17-0.05 408.37-0.05L408.37-0.05Q407.42-0.05 406.74-0.38 406.07-0.7 405.82-1.1L405.82-1.1Q403.47-3.95 398.97-10.8L398.97-10.8Q393.92-18.45 390.72-22.5L390.72-22.5Q391.12-18.9 391.12-13.7L391.12-13.7Q391.12-11.4 391.04-7.73 390.97-4.05 390.82-2.9L390.82-2.9Q390.62-1.45 389.94-0.68 389.27 0.1 387.82 0.1L387.82 0.1Q386.72 0.1 386.19-0.53 385.67-1.15 385.57-2.7L385.57-2.7Q385.52-4.75 385.82-8.85L385.82-8.85Q385.87-9.5 385.97-11.1 386.07-12.7 386.07-13.95L386.07-13.95Q386.07-17.4 385.72-21.85L385.72-21.85Q385.42-26.75 385.42-29.1L385.42-29.1Q385.42-30.3 386.29-30.95 387.17-31.6 388.32-31.6L388.32-31.6Q389.32-31.6 390.42-31.1L390.42-31.1Q394.72-25.7 402.07-15L402.07-15 406.77-7.8Q406.82-8.6 406.82-10.05L406.82-10.05Q406.82-12.6 406.72-15.55 406.62-18.5 406.57-19.55L406.57-19.55Q406.32-24.4 406.32-28.1L406.32-28.1ZM426.32-31.7Q433.12-31.7 437.09-29.83 441.07-27.95 443.12-25.65L443.12-25.65Q444.77-23.75 445.82-21.28 446.87-18.8 446.87-15.35L446.87-15.35Q446.87-12.8 445.72-10.03 444.57-7.25 442.72-5.55L442.72-5.55Q440.77-3.7 439.04-2.55 437.32-1.4 434.39-0.68 431.47 0.05 426.97 0.05L426.97 0.05Q423.57 0.05 420.82-0.73 418.07-1.5 418.07-3.35L418.07-3.35Q418.07-4.1 418.74-4.53 419.42-4.95 420.22-4.95L420.22-4.95Q420.67-4.95 420.82-4.9L420.82-4.9Q421.17-8.2 421.17-11.9L421.17-11.9Q421.17-16.05 420.97-18.78 420.77-21.5 420.42-24.2L420.42-24.2Q420.37-24.55 420.19-26.15 420.02-27.75 420.02-29.4L420.02-29.4Q420.02-30.45 421.07-31.18 422.12-31.9 423.22-31.9L423.22-31.9Q423.87-31.9 424.97-31.8L424.97-31.8Q425.87-31.7 426.32-31.7L426.32-31.7ZM425.67-4.65Q426.87-4.45 428.82-4.45L428.82-4.45Q432.12-4.45 435.07-5.83 438.02-7.2 439.82-9.68 441.62-12.15 441.62-15.4L441.62-15.4Q441.62-18.8 440.42-21.2 439.22-23.6 436.72-25.15L436.72-25.15Q434.87-26.3 432.17-26.83 429.47-27.35 425.67-27.35L425.67-27.35Q425.67-26.15 425.82-24.35L425.82-24.35Q425.82-23.75 425.92-22.25L425.92-22.25Q426.22-16.45 426.22-12.9L426.22-12.9Q426.22-7.75 425.67-4.65L425.67-4.65ZM479.71-13.25Q481.46-10.3 483.24-8.03 485.01-5.75 487.91-2.45L487.91-2.45Q488.26-2.1 488.26-1.65L488.26-1.65Q488.26-0.95 487.49-0.45 486.71 0.05 485.61 0.05L485.61 0.05Q484.06 0.05 482.26-1.25L482.26-1.25Q480.66-2.4 479.41-4.3 478.16-6.2 476.51-9.25L476.51-9.25Q475.21-11.6 474.96-12L474.96-12Q473.01-11.2 468.86-11L468.86-11Q468.86-9.3 469.16-6.4L469.16-6.4Q469.46-3.4 469.46-2.05L469.46-2.05Q469.46-1.15 468.59-0.55 467.71 0.05 466.61 0.05L466.61 0.05Q465.31 0.05 464.61-1L464.61-1Q463.91-2.4 463.71-4.35 463.51-6.3 463.51-9L463.51-9Q463.51-11.85 463.86-15.45L463.86-15.45Q464.16-19.45 464.16-21.35L464.16-21.35Q464.16-22.9 463.86-25.5L463.86-25.5Q463.81-25.95 463.71-27.05 463.61-28.15 463.61-29.05L463.61-29.05Q463.61-29.75 464.14-30.28 464.66-30.8 465.26-31L465.26-31Q469.31-31.65 473.16-31.65L473.16-31.65Q479.71-31.65 484.01-29.2 488.31-26.75 488.31-21.75L488.31-21.75Q488.31-20.2 487.64-18.78 486.96-17.35 485.81-16.4L485.81-16.4Q482.76-14.05 479.71-13.25L479.71-13.25ZM483.06-21.9Q483.06-24.3 480.51-25.83 477.96-27.35 473.26-27.35L473.26-27.35Q471.16-27.35 469.11-26.85L469.11-26.85 469.16-24.3Q469.16-22.1 469.01-20L469.01-20Q468.86-17.9 468.86-15.5L468.86-15.5Q469.71-15.7 470.66-15.78 471.61-15.85 471.91-15.9L471.91-15.9Q474.11-16.1 475.31-16.4L475.31-16.4Q477.56-17.1 479.04-17.68 480.51-18.25 481.79-19.33 483.06-20.4 483.06-21.9L483.06-21.9ZM514.21-6.8Q515.16-6.8 515.63-6.08 516.11-5.35 516.11-4.5L516.11-4.5Q516.11-3.45 515.78-3.03 515.46-2.6 514.56-2.15L514.56-2.15Q512.46-1.15 509.36-0.55 506.26 0.05 502.71 0.05L502.71 0.05Q498.26 0.05 496.18-1.45 494.11-2.95 493.63-5.08 493.16-7.2 493.16-10.65L493.16-10.65Q493.16-14.35 493.46-17.93 493.76-21.5 494.51-27.05L494.51-27.05Q494.86-29.45 496.41-30.53 497.96-31.6 499.81-31.6L499.81-31.6Q501.36-31.6 504.86-31.7L504.86-31.7 509.21-31.75Q511.91-31.75 513.11-31.6L513.11-31.6Q514.61-31.3 515.33-30.93 516.06-30.55 516.06-29.65L516.06-29.65Q516.06-28.65 515.38-27.7 514.71-26.75 513.36-26.75L513.36-26.75Q511.81-26.75 508.91-26.95L508.91-26.95Q506.01-27.15 504.56-27.15L504.56-27.15Q503.31-27.15 502.11-27L502.11-27Q500.71-26.9 500.11-26.65 499.51-26.4 499.41-25.8L499.41-25.8Q498.71-20.65 498.71-18.2L498.71-18.2Q499.86-18.05 500.96-18.05L500.96-18.05Q502.36-18.05 503.96-18.2 505.56-18.35 506.01-18.4L506.01-18.4Q508.66-18.65 510.56-18.65L510.56-18.65Q511.66-18.65 512.23-18.25 512.81-17.85 512.81-17.15L512.81-17.15Q512.81-16.05 512.23-15.45 511.66-14.85 510.21-14.55L510.21-14.55Q508.46-14.2 505.88-14 503.31-13.8 500.86-13.8L500.86-13.8Q500.01-13.8 498.51-13.9L498.51-13.9Q498.36-10.85 498.36-8.25L498.36-8.25Q498.36-4.7 503.06-4.7L503.06-4.7Q505.56-4.7 507.21-5.05 508.86-5.4 511.01-6.05L511.01-6.05Q513.01-6.8 514.21-6.8L514.21-6.8ZM533.66-11.3Q531.71-11.3 530.38-11.43 529.06-11.55 526.91-11.85L526.91-11.85 526.86-6.6Q526.81-5.25 526.81-2.75L526.81-2.75Q526.81-1.45 526.08-0.73 525.36 0 524.46 0L524.46 0Q522.81 0 522-0.43 521.21-0.85 521.21-1.95L521.21-1.95Q521.21-3.4 521.46-6.05L521.46-6.05Q522-11.75 522-17.75L522-17.75Q522-23.35 521.66-28.3L521.66-28.3Q521.71-29 522.38-29.9 523.06-30.8 524.11-30.9L524.11-30.9Q525.25-30.9 527.75-31.3L527.75-31.3Q530.36-31.7 531.71-31.7L531.71-31.7Q535.81-31.7 538.08-30.9 540.36-30.1 542.66-28.25L542.66-28.25Q545.16-24.35 545.16-22.75L545.16-22.75Q545.16-19.4 543.81-16.8 542.46-14.2 539.86-12.75 537.25-11.3 533.66-11.3L533.66-11.3ZM532.5-27.45Q530.91-27.45 529.73-27.28 528.56-27.1 526.91-26.7L526.91-26.7Q527.11-22.1 527.11-20L527.11-20Q527.11-17.85 526.96-16.4L526.96-16.4Q529.11-15.95 530.36-15.83 531.61-15.7 533.16-15.7L533.16-15.7Q536.86-15.7 538.38-17.63 539.91-19.55 539.91-22.1L539.91-22.1Q539.91-22.85 539.46-23.95 539-25.05 538.66-25.4L538.66-25.4Q537.31-26.6 536.03-27.03 534.75-27.45 532.5-27.45L532.5-27.45ZM572.65-0.75Q572-1.6 571.55-2.63 571.1-3.65 570.6-5.1L570.6-5.1Q570.5-5.35 570.03-6.6 569.55-7.85 568.95-8.75L568.95-8.75Q565.8-8.3 563.8-8.3L563.8-8.3Q562.7-8.3 561.38-8.38 560.05-8.45 559.4-8.45L559.4-8.45Q556.9-8.65 555.4-8.65L555.4-8.65Q554.8-7.85 554.38-6.95 553.95-6.05 553.3-4.25L553.3-4.25Q552.4-1.65 551.75-0.55L551.75-0.55Q551.3 0.2 550 0.2L550 0.2Q548.9 0.2 547.98-0.28 547.05-0.75 547.05-1.6L547.05-1.6Q547.45-3.5 548.33-5.63 549.2-7.75 550.85-11.3L550.85-11.3 552.85-16.2Q554.5-20.4 555.88-23.4 557.25-26.4 559.5-30.5L559.5-30.5Q559.8-31.1 560.5-31.53 561.2-31.95 562.05-31.95L562.05-31.95Q563-31.95 563.43-31.83 563.85-31.7 564.1-31.43 564.35-31.15 564.85-30.3L564.85-30.3Q566.55-27.65 567.78-24.85 569-22.05 570.9-17.1L570.9-17.1 571.95-14.45Q573.35-10.85 574.38-8.43 575.4-6 576.65-4L576.65-4Q577.45-2.7 577.45-2.2L577.45-2.2Q577.45-1 576.73-0.38 576 0.25 574.85 0.25L574.85 0.25Q573.4 0.25 572.65-0.75L572.65-0.75ZM567.5-12.85Q566.7-14.55 565.2-18.75L565.2-18.75Q563.65-23.25 562.1-25.9L562.1-25.9Q561.15-23.5 559.3-19.7L559.3-19.7Q558.05-17.35 556.45-12.9L556.45-12.9Q559.65-12.5 563.35-12.5L563.35-12.5Q566-12.5 567.5-12.85L567.5-12.85ZM589.9-27.6Q589.75-24.4 589.75-21.45L589.75-21.45Q589.75-18.4 590.15-12.5L590.15-12.5Q590.2-11.6 590.35-8.88 590.5-6.15 590.5-3.9L590.5-3.9Q591-3.95 591.57-4.05 592.15-4.15 592.45-4.15L592.45-4.15Q593.55-4.15 594.2-3.6 594.85-3.05 594.85-1.9L594.85-1.9Q594.85-1.15 594.25-0.75 593.65-0.35 592.17-0.18 590.7 0 587.9 0L587.9 0Q584.8 0 583.25-0.2 581.7-0.4 581.1-0.98 580.5-1.55 580.5-2.7L580.5-2.7Q580.5-3.55 581.05-3.85 581.6-4.15 582.6-4.15L582.6-4.15 583.65-4.1 585.3-4 585.05-9.9Q584.75-14.7 584.75-18.7L584.75-18.7Q584.75-20.85 584.9-24.6L584.9-24.6 585-27.35Q583.3-27.25 582.35-27.25L582.35-27.25Q581.25-27.25 580.87-27.65 580.5-28.05 580.5-29.3L580.5-29.3Q580.5-30.7 582.42-31.1 584.35-31.5 588.3-31.5L588.3-31.5Q591.35-31.5 592.87-31.3 594.4-31.1 594.4-30.4L594.4-30.4Q594.4-28.7 593.67-28.18 592.95-27.65 590.9-27.65L590.9-27.65 589.9-27.6ZM616.7-13.25Q618.45-10.3 620.22-8.03 622-5.75 624.9-2.45L624.9-2.45Q625.25-2.1 625.25-1.65L625.25-1.65Q625.25-0.95 624.47-0.45 623.7 0.05 622.6 0.05L622.6 0.05Q621.05 0.05 619.25-1.25L619.25-1.25Q617.65-2.4 616.4-4.3 615.15-6.2 613.5-9.25L613.5-9.25Q612.2-11.6 611.95-12L611.95-12Q610-11.2 605.85-11L605.85-11Q605.85-9.3 606.15-6.4L606.15-6.4Q606.45-3.4 606.45-2.05L606.45-2.05Q606.45-1.15 605.57-0.55 604.7 0.05 603.6 0.05L603.6 0.05Q602.3 0.05 601.6-1L601.6-1Q600.9-2.4 600.7-4.35 600.5-6.3 600.5-9L600.5-9Q600.5-11.85 600.85-15.45L600.85-15.45Q601.15-19.45 601.15-21.35L601.15-21.35Q601.15-22.9 600.85-25.5L600.85-25.5Q600.8-25.95 600.7-27.05 600.6-28.15 600.6-29.05L600.6-29.05Q600.6-29.75 601.12-30.28 601.65-30.8 602.25-31L602.25-31Q606.3-31.65 610.15-31.65L610.15-31.65Q616.7-31.65 621-29.2 625.3-26.75 625.3-21.75L625.3-21.75Q625.3-20.2 624.62-18.78 623.95-17.35 622.8-16.4L622.8-16.4Q619.75-14.05 616.7-13.25L616.7-13.25ZM620.05-21.9Q620.05-24.3 617.5-25.83 614.95-27.35 610.25-27.35L610.25-27.35Q608.15-27.35 606.1-26.85L606.1-26.85 606.15-24.3Q606.15-22.1 606-20L606-20Q605.85-17.9 605.85-15.5L605.85-15.5Q606.7-15.7 607.65-15.78 608.6-15.85 608.9-15.9L608.9-15.9Q611.1-16.1 612.3-16.4L612.3-16.4Q614.55-17.1 616.02-17.68 617.5-18.25 618.77-19.33 620.05-20.4 620.05-21.9L620.05-21.9ZM664.39-9.05Q664.39-6.7 663.32-5.03 662.24-3.35 659.79-1.95L659.79-1.95Q658.14-0.95 655.94-0.45 653.74 0.05 651.49 0.05L651.49 0.05Q649.19 0.05 645.79-1.45L645.79-1.45Q643.34-2.65 641.92-4.3 640.49-5.95 640.49-7.9L640.49-7.9Q640.49-9.25 641.09-9.88 641.69-10.5 643.04-10.5L643.04-10.5Q643.74-10.5 644.49-9.93 645.24-9.35 645.39-8.8L645.39-8.8Q646.09-6.75 647.84-5.68 649.59-4.6 652.19-4.6L652.19-4.6Q655.19-4.6 657.22-5.7 659.24-6.8 659.24-8.65L659.24-8.65Q659.24-10.45 657.04-11.85 654.84-13.25 652.54-13.8L652.54-13.8Q649.24-14.7 646.69-15.95L646.69-15.95Q644.04-17.25 642.74-19.15 641.44-21.05 641.44-23.15L641.44-23.15Q641.44-25.1 642.79-27.13 644.14-29.15 645.99-30.05L645.99-30.05Q646.99-30.55 649.42-31.13 651.84-31.7 652.94-31.7L652.94-31.7Q654.39-31.7 656.14-31.35 657.89-31 658.99-30.35L658.99-30.35Q661.19-29.1 662.24-28.1 663.29-27.1 663.29-25.6L663.29-25.6Q663.29-24.7 662.62-24 661.94-23.3 660.29-23.3L660.29-23.3Q659.89-23.3 659.49-23.65 659.09-24 658.49-24.7L658.49-24.7Q657.69-25.75 656.94-26.1L656.94-26.1Q656.19-26.35 654.77-26.65 653.34-26.95 652.24-26.95L652.24-26.95Q651.04-26.95 649.74-26.45 648.44-25.95 647.57-25.03 646.69-24.1 646.69-22.9L646.69-22.9Q646.69-21.9 647.62-21.18 648.54-20.45 649.84-20L649.84-20Q651.34-19.4 653.09-18.95L653.09-18.95Q655.39-18.25 656.87-17.68 658.34-17.1 659.74-16.25L659.74-16.25Q662.19-14.8 663.29-13.28 664.39-11.75 664.39-9.05L664.39-9.05ZM690.54-6.8Q691.49-6.8 691.96-6.08 692.44-5.35 692.44-4.5L692.44-4.5Q692.44-3.45 692.11-3.03 691.79-2.6 690.89-2.15L690.89-2.15Q688.79-1.15 685.69-0.55 682.59 0.05 679.04 0.05L679.04 0.05Q674.59 0.05 672.51-1.45 670.44-2.95 669.96-5.08 669.49-7.2 669.49-10.65L669.49-10.65Q669.49-14.35 669.79-17.93 670.09-21.5 670.84-27.05L670.84-27.05Q671.19-29.45 672.74-30.53 674.29-31.6 676.14-31.6L676.14-31.6Q677.69-31.6 681.19-31.7L681.19-31.7 685.54-31.75Q688.24-31.75 689.44-31.6L689.44-31.6Q690.94-31.3 691.66-30.93 692.39-30.55 692.39-29.65L692.39-29.65Q692.39-28.65 691.71-27.7 691.04-26.75 689.69-26.75L689.69-26.75Q688.14-26.75 685.24-26.95L685.24-26.95Q682.34-27.15 680.89-27.15L680.89-27.15Q679.64-27.15 678.44-27L678.44-27Q677.04-26.9 676.44-26.65 675.84-26.4 675.74-25.8L675.74-25.8Q675.04-20.65 675.04-18.2L675.04-18.2Q676.19-18.05 677.29-18.05L677.29-18.05Q678.69-18.05 680.29-18.2 681.89-18.35 682.34-18.4L682.34-18.4Q684.99-18.65 686.89-18.65L686.89-18.65Q687.99-18.65 688.56-18.25 689.14-17.85 689.14-17.15L689.14-17.15Q689.14-16.05 688.56-15.45 687.99-14.85 686.54-14.55L686.54-14.55Q684.79-14.2 682.21-14 679.64-13.8 677.19-13.8L677.19-13.8Q676.34-13.8 674.84-13.9L674.84-13.9Q674.69-10.85 674.69-8.25L674.69-8.25Q674.69-4.7 679.39-4.7L679.39-4.7Q681.89-4.7 683.54-5.05 685.19-5.4 687.34-6.05L687.34-6.05Q689.34-6.8 690.54-6.8L690.54-6.8ZM713.84-13.25Q715.59-10.3 717.36-8.03 719.14-5.75 722.04-2.45L722.04-2.45Q722.39-2.1 722.39-1.65L722.39-1.65Q722.39-0.95 721.61-0.45 720.84 0.05 719.74 0.05L719.74 0.05Q718.19 0.05 716.39-1.25L716.39-1.25Q714.79-2.4 713.54-4.3 712.29-6.2 710.64-9.25L710.64-9.25Q709.34-11.6 709.09-12L709.09-12Q707.14-11.2 702.99-11L702.99-11Q702.99-9.3 703.29-6.4L703.29-6.4Q703.59-3.4 703.59-2.05L703.59-2.05Q703.59-1.15 702.71-0.55 701.84 0.05 700.74 0.05L700.74 0.05Q699.44 0.05 698.74-1L698.74-1Q698.04-2.4 697.84-4.35 697.64-6.3 697.64-9L697.64-9Q697.64-11.85 697.99-15.45L697.99-15.45Q698.29-19.45 698.29-21.35L698.29-21.35Q698.29-22.9 697.99-25.5L697.99-25.5Q697.94-25.95 697.84-27.05 697.74-28.15 697.74-29.05L697.74-29.05Q697.74-29.75 698.26-30.28 698.79-30.8 699.39-31L699.39-31Q703.44-31.65 707.29-31.65L707.29-31.65Q713.84-31.65 718.14-29.2 722.44-26.75 722.44-21.75L722.44-21.75Q722.44-20.2 721.76-18.78 721.09-17.35 719.94-16.4L719.94-16.4Q716.89-14.05 713.84-13.25L713.84-13.25ZM717.19-21.9Q717.19-24.3 714.64-25.83 712.09-27.35 707.39-27.35L707.39-27.35Q705.29-27.35 703.24-26.85L703.24-26.85 703.29-24.3Q703.29-22.1 703.14-20L703.14-20Q702.99-17.9 702.99-15.5L702.99-15.5Q703.84-15.7 704.79-15.78 705.74-15.85 706.04-15.9L706.04-15.9Q708.24-16.1 709.44-16.4L709.44-16.4Q711.69-17.1 713.16-17.68 714.64-18.25 715.91-19.33 717.19-20.4 717.19-21.9L717.19-21.9ZM730.63-30.25Q732.48-24.75 734.83-18.18 737.18-11.6 739.13-6.8L739.13-6.8Q740.58-11.45 743.13-17.98 745.68-24.5 747.88-29.75L747.88-29.75Q748.53-31.3 750.08-31.3L750.08-31.3Q751.53-31.3 752.28-30.73 753.03-30.15 753.03-28.75L753.03-28.75Q753.03-28.2 752.88-27.8 752.73-27.4 752.43-26.75L752.43-26.75Q750.88-23.7 749.33-19.73 747.78-15.75 745.53-9.65L745.53-9.65Q745.63-9.9 744.13-5.9L744.13-5.9 742.48-1.6Q742.18-0.8 741.51-0.38 740.83 0.05 739.98 0.05L739.98 0.05Q739.13 0.05 738.11-0.38 737.08-0.8 736.63-1.25L736.63-1.25Q734.93-4.5 732.31-10.65 729.68-16.8 727.78-22L727.78-22 727.03-24.05Q726.28-26.15 725.93-27.28 725.58-28.4 725.58-29.1L725.58-29.1Q725.58-30.1 726.71-30.7 727.83-31.3 728.88-31.3L728.88-31.3Q729.43-31.3 729.93-31.05 730.43-30.8 730.63-30.25L730.63-30.25ZM765.33-27.6Q765.18-24.4 765.18-21.45L765.18-21.45Q765.18-18.4 765.58-12.5L765.58-12.5Q765.63-11.6 765.78-8.88 765.93-6.15 765.93-3.9L765.93-3.9Q766.43-3.95 767.01-4.05 767.58-4.15 767.88-4.15L767.88-4.15Q768.98-4.15 769.63-3.6 770.28-3.05 770.28-1.9L770.28-1.9Q770.28-1.15 769.68-0.75 769.08-0.35 767.61-0.18 766.13 0 763.33 0L763.33 0Q760.23 0 758.68-0.2 757.13-0.4 756.53-0.98 755.93-1.55 755.93-2.7L755.93-2.7Q755.93-3.55 756.48-3.85 757.03-4.15 758.03-4.15L758.03-4.15 759.08-4.1 760.73-4 760.48-9.9Q760.18-14.7 760.18-18.7L760.18-18.7Q760.18-20.85 760.33-24.6L760.33-24.6 760.43-27.35Q758.73-27.25 757.78-27.25L757.78-27.25Q756.68-27.25 756.31-27.65 755.93-28.05 755.93-29.3L755.93-29.3Q755.93-30.7 757.86-31.1 759.78-31.5 763.73-31.5L763.73-31.5Q766.78-31.5 768.31-31.3 769.83-31.1 769.83-30.4L769.83-30.4Q769.83-28.7 769.11-28.18 768.38-27.65 766.33-27.65L766.33-27.65 765.33-27.6ZM800.33-27.75Q801.08-26.85 801.38-26.3 801.68-25.75 801.68-25.25L801.68-25.25Q801.68-24.65 800.9-23.85 800.13-23.05 799.38-23.05L799.38-23.05Q798.38-23.05 797.78-23.35 797.18-23.65 796.78-24.3L796.78-24.3Q795.98-25.5 794.83-26.38 793.68-27.25 791.23-27.25L791.23-27.25Q789.13-27.25 786.45-26.3 783.78-25.35 782.63-23.95L782.63-23.95Q781.63-22.7 780.9-20.15 780.18-17.6 780.18-15.2L780.18-15.2Q780.18-12.3 781.45-9.88 782.73-7.45 785.15-6 787.58-4.55 790.98-4.55L790.98-4.55Q792.83-4.55 794.8-5.28 796.78-6 798.23-7.65L798.23-7.65 798.18-7.65Q799.08-8.6 800.43-8.6L800.43-8.6Q801.23-8.6 801.95-7.9 802.68-7.2 802.68-6.5L802.68-6.5Q802.68-5.75 802.45-5.18 802.23-4.6 801.63-3.9L801.63-3.9Q799.58-1.6 796.78-0.75 793.98 0.1 790.08 0.1L790.08 0.1Q786.63 0.1 783.1-1.55 779.58-3.2 777.68-5.55L777.68-5.55Q776.68-7 775.75-9.73 774.83-12.45 774.83-14.15L774.83-14.15Q774.83-18.5 776.15-22.43 777.48-26.35 780.13-28.7L780.13-28.7Q781.88-30.3 785.18-31.1 788.48-31.9 791.23-31.9L791.23-31.9Q794.58-31.9 796.5-30.98 798.43-30.05 800.33-27.75L800.33-27.75ZM828.58-6.8Q829.53-6.8 830-6.08 830.48-5.35 830.48-4.5L830.48-4.5Q830.48-3.45 830.15-3.03 829.83-2.6 828.93-2.15L828.93-2.15Q826.83-1.15 823.73-0.55 820.63 0.05 817.08 0.05L817.08 0.05Q812.63 0.05 810.55-1.45 808.48-2.95 808-5.08 807.53-7.2 807.53-10.65L807.53-10.65Q807.53-14.35 807.83-17.93 808.13-21.5 808.88-27.05L808.88-27.05Q809.23-29.45 810.78-30.53 812.33-31.6 814.18-31.6L814.18-31.6Q815.73-31.6 819.23-31.7L819.23-31.7 823.58-31.75Q826.28-31.75 827.48-31.6L827.48-31.6Q828.98-31.3 829.7-30.93 830.43-30.55 830.43-29.65L830.43-29.65Q830.43-28.65 829.75-27.7 829.08-26.75 827.73-26.75L827.73-26.75Q826.18-26.75 823.28-26.95L823.28-26.95Q820.38-27.15 818.93-27.15L818.93-27.15Q817.68-27.15 816.48-27L816.48-27Q815.08-26.9 814.48-26.65 813.88-26.4 813.78-25.8L813.78-25.8Q813.08-20.65 813.08-18.2L813.08-18.2Q814.23-18.05 815.33-18.05L815.33-18.05Q816.73-18.05 818.33-18.2 819.93-18.35 820.38-18.4L820.38-18.4Q823.03-18.65 824.93-18.65L824.93-18.65Q826.03-18.65 826.6-18.25 827.18-17.85 827.18-17.15L827.18-17.15Q827.18-16.05 826.6-15.45 826.03-14.85 824.58-14.55L824.58-14.55Q822.83-14.2 820.25-14 817.68-13.8 815.23-13.8L815.23-13.8Q814.38-13.8 812.88-13.9L812.88-13.9Q812.73-10.85 812.73-8.25L812.73-8.25Q812.73-4.7 817.43-4.7L817.43-4.7Q819.93-4.7 821.58-5.05 823.23-5.4 825.38-6.05L825.38-6.05Q827.38-6.8 828.58-6.8L828.58-6.8ZM858.12-9.05Q858.12-6.7 857.05-5.03 855.97-3.35 853.52-1.95L853.52-1.95Q851.87-0.95 849.67-0.45 847.47 0.05 845.22 0.05L845.22 0.05Q842.92 0.05 839.52-1.45L839.52-1.45Q837.07-2.65 835.65-4.3 834.22-5.95 834.22-7.9L834.22-7.9Q834.22-9.25 834.82-9.88 835.42-10.5 836.77-10.5L836.77-10.5Q837.47-10.5 838.22-9.93 838.97-9.35 839.12-8.8L839.12-8.8Q839.82-6.75 841.57-5.68 843.32-4.6 845.92-4.6L845.92-4.6Q848.92-4.6 850.95-5.7 852.97-6.8 852.97-8.65L852.97-8.65Q852.97-10.45 850.77-11.85 848.57-13.25 846.27-13.8L846.27-13.8Q842.97-14.7 840.42-15.95L840.42-15.95Q837.77-17.25 836.47-19.15 835.17-21.05 835.17-23.15L835.17-23.15Q835.17-25.1 836.52-27.13 837.87-29.15 839.72-30.05L839.72-30.05Q840.72-30.55 843.15-31.13 845.57-31.7 846.67-31.7L846.67-31.7Q848.12-31.7 849.87-31.35 851.62-31 852.72-30.35L852.72-30.35Q854.92-29.1 855.97-28.1 857.02-27.1 857.02-25.6L857.02-25.6Q857.02-24.7 856.35-24 855.67-23.3 854.02-23.3L854.02-23.3Q853.62-23.3 853.22-23.65 852.82-24 852.22-24.7L852.22-24.7Q851.42-25.75 850.67-26.1L850.67-26.1Q849.92-26.35 848.5-26.65 847.07-26.95 845.97-26.95L845.97-26.95Q844.77-26.95 843.47-26.45 842.17-25.95 841.3-25.03 840.42-24.1 840.42-22.9L840.42-22.9Q840.42-21.9 841.35-21.18 842.27-20.45 843.57-20L843.57-20Q845.07-19.4 846.82-18.95L846.82-18.95Q849.12-18.25 850.6-17.68 852.07-17.1 853.47-16.25L853.47-16.25Q855.92-14.8 857.02-13.28 858.12-11.75 858.12-9.05L858.12-9.05Z" opacity="1" transform="matrix(1,0,0,1,0,0)" fill="#010c80" class="slogan-text-1" data-fill-palette-color="secondary" id="text-1"></path></svg></g></svg></g></svg></g></svg></g><g transform="matrix(1,0,0,1,168.31366353765145,0)"><svg viewBox="0 0 58.892672924697074 101.37060373733884" height="101.37060373733884" width="58.892672924697074"><g><svg xmlns="http://www.w3.org/2000/svg" xmlns:xlink="http://www.w3.org/1999/xlink" version="1.1" x="0" y="0" viewBox="28.58 10 51.83999999999999 89.231" style="enable-background:new 0 0 109 109;" xml:space="preserve" height="101.37060373733884" width="58.892672924697074" class="icon-icon-0" data-fill-palette-color="accent" id="icon-0"><path d="M78.635 63.911l0.024-0.009L59.23 13.77l-0.464-1.195C57.943 11.05 56.353 10 54.499 10c-1.855 0-3.453 1.05-4.269 2.585l-0.456 1.173L30.341 63.902l0.022 0.009c-1.136 2.918-1.783 6.077-1.783 9.401 0 14.317 11.606 25.919 25.919 25.919 14.318 0 25.921-11.602 25.921-25.919C80.42 69.987 79.772 66.829 78.635 63.911zM53.596 90.432c-9.508 0-17.246-7.735-17.246-17.242 0-1.536 1.245-2.776 2.775-2.776 1.534 0 2.773 1.241 2.773 2.776 0 6.448 5.249 11.693 11.698 11.693 1.529 0 2.773 1.242 2.773 2.775C56.369 89.194 55.125 90.432 53.596 90.432zM62.138 89.711c-1.494 0-2.706-1.213-2.706-2.708 0-1.497 1.211-2.707 2.706-2.707 1.495 0 2.707 1.209 2.707 2.705C64.845 88.498 63.633 89.711 62.138 89.711z" fill="#010c80" data-fill-palette-color="accent"></path></svg></g></svg></g><g></g></svg></g></svg></g></svg></g><defs></defs></svg><rect width="395.52" height="182.1641394763032" fill="none" stroke="none" visibility="hidden"></rect></g></svg></g></svg>