<?xml version="1.0" encoding="utf-8"?>
<!-- Generator: Adobe Illustrator 19.2.1, SVG Export Plug-In . SVG Version: 6.00 Build 0)  -->
<svg version="1.1" id="layer" xmlns="http://www.w3.org/2000/svg" xmlns:xlink="http://www.w3.org/1999/xlink" x="0px" y="0px"
	 viewBox="0 0 652 652" style="enable-background:new 0 0 652 652;" xml:space="preserve">
<style type="text/css">
	.st0{fill:#0079BA;}
	.st1{fill:#008AB1;}
</style>
<g>
	<path class="st0" d="M76.7,222.7c-2.9,16.7-20.1,27.3-20.5,45c-3.5,22.7,5.4,46.7,25,59.5l7.4,4.3c-7.9,2.1-18.2,2.3-26-0.2
		c-21.3-20-29.2-52.7-17.8-80.2c3.5-9.1,9.3-17,15.5-24.4l0.8-2.1C65.9,222.9,71.3,222.9,76.7,222.7"/>
	<path class="st0" d="M95.1,226c-0.2,15.3-15.1,25-18.8,39.1c-4.6,15.9,0.4,32.9,12.6,43.6c7.2,5.8,15.3,10.1,25.2,9.3
		c-5.4,5.2-11.8,9.3-19,11.8c-17-5.2-30.8-22.1-34.3-38.9c-4.1-18.8,0.6-38,13-52.1c2.9-5.2,5.2-10.1,6.6-15.7
		C85.6,223.3,90.5,224.3,95.1,226"/>
	<path class="st0" d="M55.6,227.2c-18.4,20.3-25.4,52.7-13.8,78.8c3.3,8.3,7.6,15.9,13.4,22.9c-20.9-8.5-34.5-30.2-33.5-52.9
		c0.6-21.1,14.3-41.8,33.7-49.2C55.4,227,55.6,227,55.6,227.2"/>
</g>
<g>
	<path class="st0" d="M111.8,235.1c-3.1,11.8-11.6,21.1-18.4,31.2c-3.9,7.2-3.1,16.3,0.8,23.4c4.3,6.8,12,12.4,20.7,11
		c6-0.4,12-2.7,15.5-7.6c-1.7,7.9-5.6,14.5-10.7,20.7c-14.5,2.5-27.1-4.3-35.1-15.7c-7.4-10.1-8.5-26.7-2.5-37.6
		c5.1-8.7,12.2-15.9,15.5-25.8l1.3-6.8C103.5,229.3,108.1,232,111.8,235.1"/>
	<path class="st0" d="M130.2,268.8c3.5,6.8,1.2,16.1-3.3,21.9c-4.4,5-11.2,7.4-17.8,5.8c-6.2-1.2-11.8-6.6-13.6-12.6
		c-5.8-14.5,9.3-23.1,13.6-34.7l5.2-9.5C118.6,249.8,120.7,255.8,130.2,268.8"/>
	<polygon class="st0" points="175,242.5 192.9,242.5 185.4,299.1 208.3,299.1 206.3,314.1 165.8,314.1 	"/>
	<path class="st0" d="M248.7,240.6c-22.3,0-40.4,17.3-40.4,38.5c0,21.3,18.1,38.5,40.4,38.5c22.3,0,40.4-17.3,40.4-38.5
		C289,257.9,271,240.6,248.7,240.6 M248.7,300.7c-11.9,0-21.6-9.7-21.6-21.6c0-11.9,9.6-21.6,21.6-21.6c11.9,0,21.6,9.7,21.6,21.6
		C270.2,291.1,260.6,300.7,248.7,300.7"/>
	<polygon class="st0" points="287.7,242.2 305.4,242.2 314.3,288.9 335.1,242 351.3,242 359.9,286.8 380.6,242 399.7,242 
		367.3,313.8 347.3,313.8 339,272.7 320.1,314.1 301.9,314.1 	"/>
	<path class="st0" d="M429.7,241.3h-22.5l-33.8,73.1l19,0l6.8-13.1h25.9l3.6,12.8h17L429.7,241.3z M404.5,287l11.7-25.1l6.7,25.1
		H404.5z"/>
	<path class="st0" d="M575,241.3h-22.5l-33.8,73.1l19,0l6.7-13.1h25.9L574,314h17L575,241.3z M549.8,287l11.7-25.1l6.7,25.1H549.8z"
		/>
	<path class="st0" d="M493.1,285c0,0,16.8-5.1,17-22.3c0.3-21.5-22.7-21.2-22.7-21.2l-27.5,0.3l-10.1,72h17.9l5.4-27.4l19.9,27.5
		l20.7-0.1L493.1,285z M473.6,273.7l3.1-17.8c0,0,15.6-4.4,15.6,8.5C492.4,277.2,473.6,273.7,473.6,273.7"/>
	<path class="st0" d="M608.3,301.2v-3.9h2.6c1.3,0,2.7,0.3,2.7,1.8c0,2-1.4,2.1-3.1,2.1H608.3z M608.3,302.8h2.2l3.3,5.5h2.1
		l-3.6-5.6c1.9-0.2,3.3-1.2,3.3-3.5c0-2.5-1.5-3.6-4.5-3.6h-4.8v12.6h1.9V302.8z M610.6,312.9c6,0,11-4.6,11-11
		c0-6.3-5.1-10.9-11-10.9c-6,0-11.1,4.6-11.1,10.9C599.5,308.3,604.6,312.9,610.6,312.9 M601.7,302c0-5.2,3.9-9.1,8.9-9.1
		c4.9,0,8.8,3.9,8.8,9.1c0,5.3-3.9,9.2-8.8,9.2C605.6,311.1,601.7,307.2,601.7,302"/>
</g>
<g>
	<path class="st1" d="M230.2,388.6c-7.3,0-15.7,0.8-15.7,6.6c0,4.4,3.7,5.8,7.2,5.8c6.3,0,9.8-4.7,9.8-10.1v-2.3H230.2z
		 M231.5,384.1c0-5.3-2.9-7.9-8.2-7.9c-3.6,0-6.9,1.4-9.1,3.6l-2.5-3c2.5-2.5,6.8-4.4,12-4.4c6.6,0,11.9,3.7,11.9,11.1V397
		c0,2.4,0.2,5.2,0.5,6.9h-4c-0.2-1.5-0.5-3.4-0.5-5h-0.1c-2.8,4.1-6.2,5.8-11.1,5.8c-4.6,0-10.6-2.5-10.6-9.3
		c0-9.5,10.4-10.3,21.6-10.3V384.1z"/>
	<path class="st1" d="M456,376.2c-6.9,0-11.8,5.4-11.8,12.4c0,7,4.9,12.3,11.8,12.3c7.4,0,11.6-5.5,11.6-12.3
		C467.6,381.8,463.4,376.2,456,376.2 M444.7,398.7v5.2h-4.5v-49.5h4.5v24.2h0.1c2.6-4,7.2-6.1,11.6-6.1c9.6,0,15.9,7.1,15.9,16.1
		c0,9.1-6.3,16.1-15.9,16.1c-4.4,0-9-2.1-11.6-6H444.7z"/>
	<path class="st1" d="M477.3,373.2h4.3c0.1,1.7,0.3,3.9,0.3,5.2h0.1c1.7-3.5,5.5-6,9.8-6c1.1,0,2,0.1,2.9,0.3l-0.6,4.2
		c-0.5-0.2-2-0.4-3.1-0.4c-4.7,0-9,3.4-9,11.6v15.7h-4.4V380C477.6,378.3,477.5,375.3,477.3,373.2"/>
	<path class="st1" d="M516.2,388.6c-7.3,0-15.7,0.8-15.7,6.6c0,4.4,3.7,5.8,7.2,5.8c6.3,0,9.8-4.7,9.8-10.1v-2.3H516.2z
		 M517.5,384.1c0-5.3-2.9-7.9-8.2-7.9c-3.6,0-7,1.4-9.1,3.6l-2.5-3c2.5-2.5,6.8-4.4,12-4.4c6.6,0,11.9,3.7,11.9,11.1V397
		c0,2.4,0.2,5.2,0.5,6.9h-4c-0.3-1.5-0.5-3.4-0.5-5h-0.1c-2.8,4.1-6.2,5.8-11.2,5.8c-4.6,0-10.6-2.5-10.6-9.3
		c0-9.5,10.4-10.3,21.6-10.3V384.1z"/>
	<path class="st1" d="M533.2,373.2c0.1,1.7,0.3,3.9,0.3,5.2h0.1c1.7-3.5,6.2-6,10.5-6c7.8,0,11.7,5,11.7,12.7v18.8h-4.4v-17
		c0-6.4-1.9-10.7-8.3-10.7c-4.7,0-9.3,3.8-9.3,12v15.7h-4.4V380c0-1.7-0.1-4.7-0.2-6.8H533.2z"/>
	<path class="st1" d="M577.1,400.9c6.9,0,11.8-5.3,11.8-12.3c0-7-4.9-12.4-11.8-12.4c-7.4,0-11.6,5.6-11.6,12.4
		C565.5,395.4,569.7,400.9,577.1,400.9 M576.6,404.7c-9.6,0-15.9-7.1-15.9-16.1c0-9,6.3-16.1,15.9-16.1c4.4,0,9,2.1,11.6,6.1h0.1
		v-24.2h4.4v49.5h-4.4v-5.2h-0.1C585.6,402.6,581,404.7,576.6,404.7"/>
	<path class="st1" d="M302.9,398h-0.2c-1.7,0-2.7-2.6-4.4-7.3l-2.9-7.9c-2.7-7.3-5.4-10.7-11.6-10.7c-5.2,0-7.9,3.2-11.1,7.5
		l-2.4,3.2l-7.6-10.2h-8.1l11.7,15.3l-4.6,6.1c-2.3,3.1-3.8,4.1-5.8,4.1h-1.4v5.7h2.9c3.4,0,5.7-1.1,7.7-4l5-7l8,11h8.2l-12.2-16.1
		l3-4c2.8-3.7,4.1-5.4,6.4-5.4c2.5,0,3.7,2.3,5.8,7.6l3.5,8.9c2,5.2,3.9,9,7.5,9l0.5,0l-1.8,4.5c-1.4,3.5-2.7,5.7-6.4,5.7H291v5.8
		h2.3c5.5,0,9.4-2.7,11.9-9.8l13.5-37.5h-7.3L302.9,398z M322,394.5c0,6.7,2.7,9.5,8.4,9.5h3.1V398H332c-2.1,0-3.3-1-3.3-3.6v-38.5
		H322V394.5z M343.6,385.7h17c-0.8-4.6-3.8-7.7-8.3-7.7C347.5,378.1,344.5,381.2,343.6,385.7 M366.3,399c-3.8,3.2-7.9,5.4-13.5,5.4
		c-10.3,0-16.3-6.7-16.3-16.1c0-9.2,6.5-16.1,15.7-16.1c9.6,0,15.4,7.4,15.4,16.6c0,1.2-0.1,2.3-0.1,2.3h-23.9
		c0.9,4.5,3.7,7.4,9.2,7.4c3.9,0,6.7-1.6,9.1-3.8L366.3,399z M419.7,398.2v5.7h-3.2c-5.5,0-8.1-2.8-8.1-9.2v-10c0-3.1-1-6.3-4.9-6.3
		c-4,0-5.2,3.2-5.2,6.3v19.2h-6.9v-19.2c0-3.1-1.4-6.3-5.4-6.3c-4,0-5.3,3.2-5.3,6.3v19.2h-6.8v-19.4c0-7.6,4.9-12.3,12.1-12.3
		c3.7,0,6.7,1.3,8.9,3.6c2.1-2.3,5.2-3.6,8.8-3.6c6.7,0,11.5,4.3,11.5,12.3v10.3c0,2.4,1.1,3.4,3.1,3.4H419.7z"/>
</g>
</svg>
