<?xml version="1.0" encoding="utf-8"?>
<!-- Generator: Adobe Illustrator 19.2.1, SVG Export Plug-In . SVG Version: 6.00 Build 0)  -->
<svg version="1.1" id="layer" xmlns="http://www.w3.org/2000/svg" xmlns:xlink="http://www.w3.org/1999/xlink" x="0px" y="0px"
	 viewBox="0 0 652 652" style="enable-background:new 0 0 652 652;" xml:space="preserve">
<style type="text/css">
	.st0{fill:#ED3238;}
	.st1{fill:#195394;}
</style>
<path class="st0" d="M32.7,265.7c7.7-8,18.6-13,30.6-13c19.7,0,36.3,13.4,41.1,31.6c0,0-14.9,0.2-24.3-1.1
	c-10.4-1.4-16.4-2.7-26.2-6.4C45.2,273.4,32.7,265.7,32.7,265.7"/>
<path class="st0" d="M68,287.5c-11.8-1.4-18.5-2.3-29.9-5.3c-5.4-1.4-13.6-4.2-13.6-4.2c1-2.3,2.3-4.6,3.7-6.7
	c2.7,1.3,4.3,2.3,7.1,3.5c13.1,6,21.4,7.5,35.6,9.7c13.1,2.1,34,1.8,34,1.8c0.2,1,0.4,2.1,0.5,3.2C105.4,289.4,82.5,289.3,68,287.5"
	/>
<path class="st0" d="M21,291.8c0.2-2.8,0.7-5.6,1.5-8.2c16.2,3.4,26.1,5.2,43,6.6c15.6,1.4,40.1,1.2,40.1,1.2
	c0.1,0.7,0.1,1.4,0.2,2.1l-37.4-0.2L21,291.8z"/>
<path class="st0" d="M32.7,323.5c7.7,8,18.6,13,30.6,13c19.7,0,36.3-13.4,41.1-31.6c0,0-14.9-0.3-24.3,1.1
	c-10.4,1.4-16.4,2.7-26.2,6.4C45.2,315.8,32.7,323.5,32.7,323.5"/>
<path class="st0" d="M68,301.8c-11.8,1.4-18.5,2.2-29.9,5.3c-5.4,1.4-13.6,4.2-13.6,4.2c1,2.3,2.3,4.6,3.7,6.7
	c2.7-1.4,4.3-2.3,7.1-3.6c13.1-6,21.4-7.4,35.6-9.7c13.1-2,34-1.8,34-1.8c0.2-1,0.4-2,0.5-3.1C105.4,299.8,82.5,300,68,301.8"/>
<path class="st0" d="M21,297.4c0.2,2.8,0.7,5.6,1.5,8.2c16.2-3.4,26.1-5.1,43-6.6c15.6-1.4,40.1-1.2,40.1-1.2
	c0.1-0.7,0.1-1.4,0.2-2.1l-37.4,0.1L21,297.4z"/>
<path class="st1" d="M155.4,334.2c23.9,0,44.4-17,50.1-38.3c2.9-10.9,1.3-21.1-4.6-28.7c-5.6-7.3-14.4-11.4-24.9-11.4
	c-21.3,0-43.3,17.4-49,38.6l-17.3,64.6l21.7-11.3l13.9-51.8c3.2-11.9,15.4-21.6,27.3-21.6c5.3,0,9.7,2,12.4,5.5
	c2.9,3.8,3.7,8.9,2.2,14.6c-3.2,11.9-15.6,21.9-27.3,21.6c-11.7-0.3-14.6-5.1-14.6-5.1l-4.9,17.6
	C140.4,328.5,143.5,334.2,155.4,334.2"/>
<path class="st1" d="M614.8,263.4c1.2-0.1,2.2-0.8,2.2-2.3c0-1.6-1-2.4-3-2.4h-3.2v8.4h1.3v-3.6h1.5l2.2,3.6h1.4L614.8,263.4z
	 M612.1,262.4v-2.6h1.7c0.9,0,1.8,0.2,1.8,1.3c0,1.3-0.9,1.4-2,1.4H612.1z"/>
<path class="st1" d="M613.6,255.6c-4.1,0-7.4,3.1-7.4,7.3c0,4.2,3.4,7.3,7.4,7.3c4,0,7.3-3.1,7.3-7.3
	C621,258.7,617.6,255.6,613.6,255.6 M613.6,269c-3.4,0-6-2.6-6-6.1c0-3.5,2.6-6.1,6-6.1c3.3,0,5.9,2.6,5.9,6.1
	C619.5,266.4,616.9,269,613.6,269"/>
<path class="st1" d="M229.1,285.8c5.6-7.2,14.2-12,22.4-12h8.5h2.3l0.6-2.1l3.4-12.6l1-3.7h-3.8h-8.6c-21.3,0-43.3,17.3-49,38.6
	c-2.9,10.9-1.3,21.1,4.6,28.7c5.6,7.3,14.5,11.4,24.9,11.4h8.6h2.2l0.6-2.2l3.4-12.6l1-3.7h-3.8h-8.5c-7.9,0-13.6-4.4-15-11.3h0.1
	h28h2.2l0.6-2.2l3.4-12.6l1-3.7h-3.8h-25.9L229.1,285.8z"/>
<path class="st1" d="M280.5,315.5l-6.7,0.1l0.4-0.2l6.8-26.2l1-3.7h-3.9h-12.6h-2.3l-0.6,2.2l-11.4,42.6l-1,3.7h3.8h22.9
	c21.3,0,43.3-17.3,49-38.6c2.9-10.9,1.3-21.1-4.6-28.7c-5.6-7.3-14.4-11.4-24.9-11.4h-22.9h-2.2l-0.6,2.2l-3.4,12.6l-1,3.7h3.8h22.9
	c5.2,0,9.6,2,12.3,5.5c2.9,3.8,3.7,9,2.1,14.6C304.5,305.8,292.3,315.5,280.5,315.5L280.5,315.5z"/>
<path class="st1" d="M378.2,280.7c1.8-6.8,0.8-13.1-2.9-17.9c-3.5-4.6-9-7.2-15.5-7.2c0,0-23.2,0-23.2,0l-4.9,18.5l24.8,0
	c1.4,0,2.4,0.5,3.1,1.3c0.7,1,0.9,2.3,0.5,3.8c-1,3.6-4.8,6.7-8.3,6.7h-0.2l-22.6,0.1l-13,48.6h18.7l8.1-30.4h3.1l9.4,30.4h19.9
	l-10.8-35.4C364.4,299.1,376.1,288.7,378.2,280.7"/>
<path class="st1" d="M489.7,294c-2.9,10.9-1.3,21.1,4.6,28.7c5.7,7.3,14.5,11.4,24.9,11.4h0.4h4.2l5-18.6h-6.2
	c-5.3,0-9.7-2-12.4-5.5c-2.9-3.8-3.7-8.9-2.1-14.6l10.7-40.1H500L489.7,294z"/>
<path class="st1" d="M451.1,294c-2.9,10.9-1.3,21.1,4.6,28.7c5.6,7.3,14.4,11.4,24.8,11.4l-0.7-0.1l0.7,0.2h4.6l5-18.6h-6.2
	c-5.3,0-9.7-2-12.4-5.5c-2.9-3.8-3.7-9-2.1-14.6l10.7-40.1h-18.7L451.1,294z"/>
<path class="st1" d="M601.5,266.9c-5.6-7.4-14.5-11.3-24.9-11.3c-21.3,0-43.3,17.3-49,38.5c-2.9,10.9-1.3,21.1,4.6,28.7
	c5.6,7.3,14.5,11.4,24.9,11.4c21.3,0,43.3-17.3,49-38.6C609,284.7,607.4,274.6,601.5,266.9 M587.8,294.1
	c-3.2,11.9-15.5,21.6-27.3,21.6c-5.3,0-9.7-2-12.4-5.6c-2.9-3.8-3.7-8.9-2.1-14.6c3.2-11.9,15.4-21.6,27.3-21.6
	c5.3,0,9.7,2,12.4,5.6C588.6,283.3,589.3,288.5,587.8,294.1"/>
<path class="st1" d="M446.2,267c-5.7-7.3-14.5-11.3-24.9-11.3c-21.3,0-43.2,17.3-49,38.5c-2.9,10.9-1.3,21,4.6,28.7
	c5.6,7.3,14.5,11.3,24.8,11.3c21.3,0,43.3-17.3,49-38.6C453.7,284.9,452.1,274.7,446.2,267 M432.5,294.2
	c-3.2,11.9-15.5,21.6-27.3,21.6c-5.3,0-9.7-2-12.4-5.5c-2.9-3.8-3.7-8.9-2.2-14.5c3.2-12,15.4-21.6,27.3-21.6c5.2,0,9.7,2,12.4,5.5
	C433.3,283.5,434.1,288.6,432.5,294.2"/>
<path class="st1" d="M585,372.3c0,0,1.9-6.7,0.4-10c-0.9-1.8-3.1-3-5.7-3.2c-2.1-0.2-5.4,0.2-8.8,3.2c-2.2,1.8-4,4.9-5,8.2
	c-1,3.3-1,6.3-0.1,8.2c1.2,2.2,3.7,3.6,6.8,3.6c3,0,6.1-1.2,8.2-3.2c1.8-1.6,3.5-4.9,3.5-4.9h-4.3c0-0.1-2.9,4.3-6.6,4.3
	c-2.2,0-3-1.2-3.6-2.3c-0.5-1.5,0-4,0-4L585,372.3z M573.9,364.5L573.9,364.5c1.3-1.3,3.1-1.9,4.8-1.7c1.6,0.1,2.4,1,2.7,1.5
	c0.4,0.6,0.7,2.5,0.2,4.2c-1.3,0-6.5,0-10.5,0C570.6,368.5,573.3,364.9,573.9,364.5"/>
<path class="st1" d="M313.1,357.7h-2.9l-1.1,4.1h2.9l-4.3,15.9c-0.1,0.6-0.1,1.6,0.4,2.4c0.3,0.5,0.9,1.1,2.2,1.3
	c1.3,0.1,4.1-0.3,4.1-0.3l1.1-4.1l-0.7,0.1c-1.9,0.3-2.3,0.1-2.5-0.1c-0.1-0.1-0.1-0.3,0-0.5l4-14.8h3.3l1.1-4.1h-3.3l1.6-5.9h-4.3
	L313.1,357.7z"/>
<path class="st1" d="M327.6,361.5l2.8-9.9h-4.3l-8.4,29.8h4.3l3.9-13.8c0.5-1.7,1.1-2.2,2-2.9c1.4-0.9,2.6-1.5,3.6-1.7
	c1.1-0.2,2,0,3.1,0.5c0.4,0.2,1.3,0.7,0.5,3.1c0,0-4.2,14.8-4.2,14.8h4.3l4.6-16.1v0.1c0.2-0.5,0.4-2.1-0.2-3.4
	c-0.4-0.9-1.1-1.6-2.1-2c-1-0.5-2.1-0.7-3.3-0.7c-1,0-2,0.2-3.1,0.6C328.7,360.5,327.6,361.5,327.6,361.5"/>
<path class="st1" d="M360.8,371.7c0,0,1.9-6.5,0.4-9.5c-0.9-1.8-3.1-2.9-5.7-3.1c-2.1-0.2-5.4,0.2-8.9,3.1c-2.2,1.8-4,4.6-5,7.9
	c-1,3.2-1,6.1-0.1,7.8c1.1,2.2,3.7,3.5,6.8,3.5c3,0,6.1-1.2,8.2-3.1c1.7-1.5,3.5-4.8,3.5-4.8h-4.3c0,0-2.9,4.2-6.5,4.2
	c-2.2,0-3-1.1-3.6-2.2c-0.5-1.4,0-3.8,0-3.8H360.8z M349.7,364.2L349.7,364.2c1.3-1.2,3.1-1.8,4.8-1.6c1.6,0.1,2.3,0.9,2.7,1.5
	c0.4,0.5,0.7,2.4,0.2,4c-1.3,0-6.5,0-10.5,0C346.4,368.1,349.1,364.6,349.7,364.2"/>
<path class="st1" d="M373.3,374.6c-0.6,2.1-0.5,3.8,0.2,5.1c0.6,1.1,1.8,1.9,3.4,2.3c1.2,0.3,2.7,0.3,4.1,0.3c1.6-0.2,3-0.4,4.2-0.9
	c2.4-1,4.4-2.9,5.4-5.2c1-2.4,0.6-4.6-1-5.7c-1.3-1-3-1.4-4.5-1.7c0,0-0.3-0.1-0.3-0.1c-1.8-0.5-3.1-0.8-4-1.4
	c-0.3-0.2-0.5-0.4-0.5-0.7c-0.1-0.5,0.1-1,0.4-1.5c0.7-0.9,2.4-2,4.3-2c1.7,0,2.8,0.3,3.3,1c0.4,0.5-0.1,2.4-0.1,2.4h4.2l0-0.4
	c0.6-2.1,0.4-3.8-0.5-4.9c-1-1.3-3-2-5.8-2c-3.8,0-8.6,2.1-9.9,6.5c-1,3.6,0.5,5,1.9,5.6h-0.1c1.3,0.7,3.5,1.2,5.5,1.7l1.8,0.4
	c1,0.4,1.5,1.1,1.2,2.1c-0.2,0.9-1,1.8-1.8,2.3c-0.6,0.4-1.7,0.6-2.8,0.9h0.1c-1,0-2.1,0-2.7-0.2c-1.9-0.6-2.6-1.7-2.2-3.5l0.1-0.6
	h-4L373.3,374.6z"/>
<path class="st1" d="M412.1,359.9c-1-0.6-2.5-0.9-4.1-0.9c-1.5,0-3,0.3-4,0.8c-0.9,0.4-2.5,1.4-2.5,1.5v-0.1l0.5-1.7h-3.8l-8.4,28.7
	l-0.2,0.6h4.3l0.1-0.3l2.8-9.4c0.2,0.3,0.6,0.6,1,0.9c0.4,0.3,1.9,1.3,4.4,1.3c2.5,0,4.8-0.9,7.1-2.7c2.6-2,4.8-5.8,5.5-9.6
	C415.7,364.8,414.7,361.4,412.1,359.9 M406.9,375.5c-1.2,1.2-2.9,1.8-4.6,1.8c-1.4,0-2.7-0.7-3.2-1.7c-0.7-1.4-0.7-6.5,3-10.6
	c1.1-1.2,2.7-1.9,4.3-2c1.6-0.1,2.9,0.4,3.4,1.6C411.4,367.8,409.2,373.3,406.9,375.5"/>
<path class="st1" d="M424.5,361.7l0.6-2.1h-4.3l-6.1,21.7h4.3l3.2-11.1c0.9-3.4,2.5-5.2,5.1-6.3c2.3-1,3.5-0.4,3.5-0.4l1.3-4.4h-2.5
	L424.5,361.7z M429.4,359.1c-3.1,0.2-4.9,2.7-4.9,2.7"/>
<polygon class="st1" points="434.4,359.7 428.3,381.4 432.6,381.4 438.6,359.7 "/>
<polygon class="st1" points="436.7,351.6 435.3,356.6 439.6,356.6 440.9,351.6 "/>
<path class="st1" d="M437.3,381.4h4.3l3.2-11.4c1.7-6.5,6-7,7.3-7c1.1,0,2,0.3,2.4,0.9c0.4,0.6,0.5,1.4,0.2,2.4l-4.3,15h4.3
	l4.7-16.5v-0.1c0.5-3.4-1.3-4.6-2.2-5.1c-0.6-0.4-2.1-0.6-3.5-0.6c-1.1-0.1-3.1,0.1-4.6,1l-1.9,1.2l0.5-1.6h-4.3L437.3,381.4z"/>
<path class="st1" d="M478.7,359.7c0,0-0.3,1.1-0.5,1.9c-1.1-1.6-2.7-2.4-4.9-2.5c-3.4-0.2-7,2.4-7.9,3.4c-2.2,2.2-3.9,5.9-4.9,9.3
	c-1.7,5.9,1.9,10.4,5.7,10.5c2.7,0,5.1-1.3,6.9-2.6c-0.6,1.3-1.1,4.7-4.5,6.1c-0.9,0.4-2,0.5-3,0.5c-0.9,0-1.6-0.2-2.3-0.4
	c-1.9-0.7-1.2-3-1.2-3h-4.2c0,0-1.5,4.7,3,6.6c1.2,0.5,2.7,0.9,4.7,0.7c7.7-0.5,10-5.7,12.3-12.5c0,0,5-17.8,5-17.8H478.7z
	 M472.1,376.7c-1.4,1.1-2.9,1.7-4.3,1.6c-1.4-0.1-2.5-0.8-3-2c-0.5-1.3-0.4-3.1,0.3-5.2c0.6-1.9,1.6-3.7,2.2-4.6
	c1.8-2.4,3.9-2.9,5.3-2.9c1.6,0.1,2.7,0.8,2.9,1.1v0l0,0C477,367,475.5,373.9,472.1,376.7"/>
<path class="st1" d="M513.1,361.6c-1.6-2.1-4.2-2.5-6.1-2.5c-3,0-10,1.1-13,11.4c-1.1,4.1-0.9,7.2,0.6,9.2c1.2,1.6,3.4,2.5,6.1,2.5
	c2.9,0,10.1-1.1,13-11.5C514.8,366.7,514.6,363.6,513.1,361.6 M509.4,370.5c-1,3.6-3.9,7.5-7.8,7.5c-1.3,0-2.3-0.4-2.9-1.3
	c-1.1-1.5-1-4.1-0.4-6c1-3.6,3.9-7.5,7.8-7.5c1.3,0,2.3,0.4,2.9,1.3C510.1,366.1,509.9,368.6,509.4,370.5"/>
<path class="st1" d="M519.3,381.4l5-17.8l3.3,0l1.2-3.9h-3.3l0.7-2.5c0.5-1.9,1.6-2.1,3.5-1.9l0.4,0.1l1-3.6l-0.5-0.1
	c-1.2-0.2-2.3-0.2-3.5,0c-0.7,0-4,1.4-5,4.8l-0.9,3.2l-2.8,0l-1.1,3.9h2.8l-5,17.7H519.3z"/>
<polygon class="st1" points="536.9,381.4 540.2,381.4 540.5,381.4 540.6,381 548.8,352.1 548.9,351.6 548.4,351.6 545,351.6 
	544.7,351.6 544.6,351.9 536.4,380.8 536.3,381.4 "/>
<polygon class="st1" points="554.8,359.7 551.5,359.7 551.1,359.7 551,360 545.2,380.8 545,381.4 545.6,381.4 548.9,381.4 
	549.3,381.4 549.3,381 555.2,360.2 555.4,359.7 "/>
<polygon class="st1" points="557.1,351.6 553.7,351.6 553.4,351.6 553.3,351.9 552.2,356 552,356.6 552.5,356.6 555.9,356.6 
	556.2,356.6 556.3,356.3 557.5,352.1 557.7,351.6 "/>
<path class="st1" d="M559,381.4l5-17.8l3.3,0l1.1-3.9h-3.3l0.7-2.4c0.5-1.9,1.6-2.1,3.5-1.9l0.4,0l1.1-3.6l-0.5-0.1
	c-1.2-0.3-2.4-0.3-3.5-0.1c-0.7,0.1-4,1.4-5,4.9l-0.9,3.1l-2.8,0l-1.1,3.9h2.8l-5,17.7H559z"/>
</svg>
